<svg xmlns="http://www.w3.org/2000/svg" version="1.1" xmlns:xlink="http://www.w3.org/1999/xlink" xmlns:svgjs="http://svgjs.dev/svgjs" width="1000" height="1000" viewBox="0 0 1000 1000"><rect width="1000" height="1000" fill="#ffffff"></rect><g transform="matrix(0.7,0,0,0.7,149.57575757575756,282.1265587044535)"><svg viewBox="0 0 396 247" data-background-color="#2979ff" preserveAspectRatio="xMidYMid meet" height="623" width="1000" xmlns="http://www.w3.org/2000/svg" xmlns:xlink="http://www.w3.org/1999/xlink"><g id="tight-bounds" transform="matrix(1,0,0,1,0.2400000000000091,-0.09999999999999432)"><svg viewBox="0 0 395.52 247.2" height="247.2" width="395.52"><g><svg></svg></g><g><svg viewBox="0 0 395.52 247.2" height="247.2" width="395.52"><g transform="matrix(1,0,0,1,39.55199999999999,110.74589108036503)"><svg viewBox="0 0 316.416 25.708217839269942" height="25.708217839269942" width="316.416"><g><svg viewBox="0 0 316.416 25.708217839269942" height="25.708217839269942" width="316.416"><g><svg viewBox="0 0 316.416 25.708217839269942" height="25.708217839269942" width="316.416"><g><svg viewBox="0 0 316.416 25.708217839269942" height="25.708217839269942" width="316.416"><g id="textblocktransform"><svg viewBox="0 0 316.416 25.708217839269942" height="25.708217839269942" width="316.416" id="textblock"><g><svg viewBox="0 0 316.416 25.708217839269942" height="25.708217839269942" width="316.416"><g transform="matrix(1,0,0,1,0,0)"><svg width="316.416" viewBox="1.3499999046325684 -38.900001525878906 510.5 42.400001525878906" height="25.708217839269942" data-palette-color="#ffffff"><path d="M17.1 0L5.5 0Q4.95 0 4.65-0.33 4.35-0.65 4.35-1.15L4.35-1.15 4.35-33.8Q4.35-34.35 4.65-34.68 4.95-35 5.5-35L5.5-35 16.85-35Q22-35 25.15-33.45 28.3-31.9 29.75-28.88 31.2-25.85 31.25-21.45L31.25-21.45Q31.3-19.2 31.3-17.5 31.3-15.8 31.25-13.6L31.25-13.6Q31.15-9 29.73-5.98 28.3-2.95 25.23-1.48 22.15 0 17.1 0L17.1 0ZM9.25-30.75L9.25-4.25 16.85-4.25Q20.3-4.25 22.35-5.2 24.4-6.15 25.33-8.25 26.25-10.35 26.3-13.8L26.3-13.8Q26.4-15.3 26.4-16.43 26.4-17.55 26.4-18.68 26.4-19.8 26.3-21.25L26.3-21.25Q26.2-26.1 24-28.43 21.8-30.75 16.6-30.75L16.6-30.75 9.25-30.75ZM48.55 0.5L48.55 0.5Q43.35 0.5 40.3-2.68 37.25-5.85 36.95-11.35L36.95-11.35Q36.9-12 36.9-13.03 36.9-14.05 36.95-14.7L36.95-14.7Q37.15-18.25 38.6-20.93 40.05-23.6 42.57-25.05 45.1-26.5 48.5-26.5L48.5-26.5Q52.3-26.5 54.87-24.9 57.45-23.3 58.8-20.35 60.15-17.4 60.15-13.45L60.15-13.45 60.15-12.6Q60.15-12.05 59.82-11.75 59.5-11.45 59-11.45L59-11.45 41.7-11.45Q41.7-11.4 41.7-11.25 41.7-11.1 41.7-11L41.7-11Q41.8-8.95 42.6-7.18 43.4-5.4 44.92-4.3 46.45-3.2 48.5-3.2L48.5-3.2Q50.3-3.2 51.5-3.75 52.7-4.3 53.45-4.98 54.2-5.65 54.45-6.05L54.45-6.05Q54.9-6.65 55.15-6.78 55.4-6.9 55.95-6.9L55.95-6.9 58.4-6.9Q58.85-6.9 59.17-6.63 59.5-6.35 59.45-5.85L59.45-5.85Q59.4-5.1 58.65-4.03 57.9-2.95 56.52-1.9 55.15-0.85 53.12-0.18 51.1 0.5 48.55 0.5ZM41.7-15.05L41.7-14.9 55.4-14.9 55.4-15.05Q55.4-17.3 54.57-19.05 53.75-20.8 52.2-21.83 50.65-22.85 48.5-22.85L48.5-22.85Q46.35-22.85 44.82-21.83 43.3-20.8 42.5-19.05 41.7-17.3 41.7-15.05L41.7-15.05ZM75.15 0.5L75.15 0.5Q72.35 0.5 70.35-0.2 68.35-0.9 67.1-1.9 65.85-2.9 65.22-3.9 64.6-4.9 64.55-5.5L64.55-5.5Q64.5-6.05 64.9-6.35 65.3-6.65 65.7-6.65L65.7-6.65 67.95-6.65Q68.2-6.65 68.37-6.58 68.55-6.5 68.85-6.15L68.85-6.15Q69.5-5.45 70.3-4.75 71.1-4.05 72.27-3.6 73.45-3.15 75.2-3.15L75.2-3.15Q77.75-3.15 79.4-4.13 81.05-5.1 81.05-7L81.05-7Q81.05-8.25 80.37-9 79.7-9.75 77.97-10.35 76.25-10.95 73.25-11.6L73.25-11.6Q70.25-12.3 68.5-13.33 66.75-14.35 66-15.78 65.25-17.2 65.25-19L65.25-19Q65.25-20.85 66.35-22.58 67.45-24.3 69.57-25.4 71.7-26.5 74.9-26.5L74.9-26.5Q77.5-26.5 79.35-25.85 81.2-25.2 82.4-24.23 83.6-23.25 84.2-22.3 84.8-21.35 84.85-20.7L84.85-20.7Q84.9-20.2 84.55-19.88 84.2-19.55 83.75-19.55L83.75-19.55 81.65-19.55Q81.3-19.55 81.07-19.7 80.85-19.85 80.65-20.05L80.65-20.05Q80.15-20.7 79.47-21.35 78.8-22 77.72-22.43 76.65-22.85 74.9-22.85L74.9-22.85Q72.4-22.85 71.15-21.8 69.9-20.75 69.9-19.15L69.9-19.15Q69.9-18.2 70.45-17.45 71-16.7 72.55-16.1 74.1-15.5 77.15-14.8L77.15-14.8Q80.45-14.15 82.35-13.05 84.25-11.95 85.05-10.5 85.85-9.05 85.85-7.15L85.85-7.15Q85.85-5.05 84.65-3.3 83.45-1.55 81.05-0.53 78.65 0.5 75.15 0.5ZM105.24 0L101.79 0Q98.99 0 97.24-1.07 95.49-2.15 94.69-4.13 93.89-6.1 93.89-8.8L93.89-8.8 93.89-22 89.99-22Q89.49-22 89.17-22.33 88.84-22.65 88.84-23.15L88.84-23.15 88.84-24.85Q88.84-25.35 89.17-25.68 89.49-26 89.99-26L89.99-26 93.89-26 93.89-34.35Q93.89-34.85 94.22-35.18 94.54-35.5 95.04-35.5L95.04-35.5 97.39-35.5Q97.89-35.5 98.22-35.18 98.54-34.85 98.54-34.35L98.54-34.35 98.54-26 104.74-26Q105.29-26 105.59-25.68 105.89-25.35 105.89-24.85L105.89-24.85 105.89-23.15Q105.89-22.65 105.59-22.33 105.29-22 104.74-22L104.74-22 98.54-22 98.54-9.15Q98.54-6.8 99.34-5.45 100.14-4.1 102.19-4.1L102.19-4.1 105.24-4.1Q105.74-4.1 106.07-3.78 106.39-3.45 106.39-2.95L106.39-2.95 106.39-1.15Q106.39-0.65 106.07-0.33 105.74 0 105.24 0L105.24 0ZM114.74 0L112.34 0Q111.84 0 111.52-0.33 111.19-0.65 111.19-1.15L111.19-1.15 111.19-24.85Q111.19-25.35 111.52-25.68 111.84-26 112.34-26L112.34-26 114.74-26Q115.24-26 115.57-25.68 115.89-25.35 115.89-24.85L115.89-24.85 115.89-1.15Q115.89-0.65 115.57-0.33 115.24 0 114.74 0L114.74 0ZM115.09-30.85L111.94-30.85Q111.44-30.85 111.12-31.18 110.79-31.5 110.79-32L110.79-32 110.79-34.7Q110.79-35.2 111.12-35.55 111.44-35.9 111.94-35.9L111.94-35.9 115.09-35.9Q115.59-35.9 115.94-35.55 116.29-35.2 116.29-34.7L116.29-34.7 116.29-32Q116.29-31.5 115.94-31.18 115.59-30.85 115.09-30.85L115.09-30.85ZM126.94 0L124.44 0Q123.94 0 123.61-0.33 123.29-0.65 123.29-1.15L123.29-1.15 123.29-24.85Q123.29-25.35 123.61-25.68 123.94-26 124.44-26L124.44-26 126.79-26Q127.29-26 127.61-25.68 127.94-25.35 127.94-24.85L127.94-24.85 127.94-22.65Q129.24-24.35 131.21-25.43 133.19-26.5 136.29-26.5L136.29-26.5Q139.54-26.5 141.81-25.08 144.09-23.65 145.26-21.13 146.44-18.6 146.44-15.25L146.44-15.25 146.44-1.15Q146.44-0.65 146.11-0.33 145.79 0 145.29 0L145.29 0 142.79 0Q142.29 0 141.96-0.33 141.64-0.65 141.64-1.15L141.64-1.15 141.64-15Q141.64-18.5 139.94-20.48 138.24-22.45 134.94-22.45L134.94-22.45Q131.84-22.45 129.96-20.48 128.09-18.5 128.09-15L128.09-15 128.09-1.15Q128.09-0.65 127.76-0.33 127.44 0 126.94 0L126.94 0ZM160.84 0.5L160.84 0.5Q158.34 0.5 156.29-0.5 154.24-1.5 152.99-3.2 151.74-4.9 151.74-7.05L151.74-7.05Q151.74-10.5 154.54-12.55 157.34-14.6 161.84-15.25L161.84-15.25 169.29-16.3 169.29-17.75Q169.29-20.15 167.91-21.5 166.54-22.85 163.44-22.85L163.44-22.85Q161.24-22.85 159.84-21.95 158.44-21.05 157.89-19.65L157.89-19.65Q157.59-18.9 156.84-18.9L156.84-18.9 154.59-18.9Q154.04-18.9 153.76-19.23 153.49-19.55 153.49-20L153.49-20Q153.49-20.75 154.06-21.85 154.64-22.95 155.84-24 157.04-25.05 158.91-25.78 160.79-26.5 163.49-26.5L163.49-26.5Q166.49-26.5 168.54-25.73 170.59-24.95 171.76-23.65 172.94-22.35 173.46-20.7 173.99-19.05 173.99-17.35L173.99-17.35 173.99-1.15Q173.99-0.65 173.66-0.33 173.34 0 172.84 0L172.84 0 170.54 0Q169.99 0 169.69-0.33 169.39-0.65 169.39-1.15L169.39-1.15 169.39-3.3Q168.74-2.4 167.64-1.53 166.54-0.65 164.89-0.08 163.24 0.5 160.84 0.5ZM161.89-3.25L161.89-3.25Q163.94-3.25 165.64-4.13 167.34-5 168.31-6.85 169.29-8.7 169.29-11.5L169.29-11.5 169.29-12.9 163.49-12.05Q159.94-11.55 158.14-10.38 156.34-9.2 156.34-7.4L156.34-7.4Q156.34-6 157.16-5.08 157.99-4.15 159.26-3.7 160.54-3.25 161.89-3.25ZM194.78 0L191.33 0Q188.53 0 186.78-1.07 185.03-2.15 184.23-4.13 183.43-6.1 183.43-8.8L183.43-8.8 183.43-22 179.53-22Q179.03-22 178.71-22.33 178.38-22.65 178.38-23.15L178.38-23.15 178.38-24.85Q178.38-25.35 178.71-25.68 179.03-26 179.53-26L179.53-26 183.43-26 183.43-34.35Q183.43-34.85 183.76-35.18 184.08-35.5 184.58-35.5L184.58-35.5 186.93-35.5Q187.43-35.5 187.76-35.18 188.08-34.85 188.08-34.35L188.08-34.35 188.08-26 194.28-26Q194.83-26 195.13-25.68 195.43-25.35 195.43-24.85L195.43-24.85 195.43-23.15Q195.43-22.65 195.13-22.33 194.83-22 194.28-22L194.28-22 188.08-22 188.08-9.15Q188.08-6.8 188.88-5.45 189.68-4.1 191.73-4.1L191.73-4.1 194.78-4.1Q195.28-4.1 195.61-3.78 195.93-3.45 195.93-2.95L195.93-2.95 195.93-1.15Q195.93-0.65 195.61-0.33 195.28 0 194.78 0L194.78 0ZM204.28 0L201.88 0Q201.38 0 201.06-0.33 200.73-0.65 200.73-1.15L200.73-1.15 200.73-24.85Q200.73-25.35 201.06-25.68 201.38-26 201.88-26L201.88-26 204.28-26Q204.78-26 205.11-25.68 205.43-25.35 205.43-24.85L205.43-24.85 205.43-1.15Q205.43-0.65 205.11-0.33 204.78 0 204.28 0L204.28 0ZM204.63-30.85L201.48-30.85Q200.98-30.85 200.66-31.18 200.33-31.5 200.33-32L200.33-32 200.33-34.7Q200.33-35.2 200.66-35.55 200.98-35.9 201.48-35.9L201.48-35.9 204.63-35.9Q205.13-35.9 205.48-35.55 205.83-35.2 205.83-34.7L205.83-34.7 205.83-32Q205.83-31.5 205.48-31.18 205.13-30.85 204.63-30.85L204.63-30.85ZM223.48 0.5L223.48 0.5Q219.68 0.5 217.13-0.95 214.58-2.4 213.23-4.98 211.88-7.55 211.73-10.85L211.73-10.85Q211.68-11.7 211.68-13.03 211.68-14.35 211.73-15.15L211.73-15.15Q211.88-18.5 213.25-21.05 214.63-23.6 217.18-25.05 219.73-26.5 223.48-26.5L223.48-26.5Q227.23-26.5 229.78-25.05 232.33-23.6 233.7-21.05 235.08-18.5 235.23-15.15L235.23-15.15Q235.28-14.35 235.28-13.03 235.28-11.7 235.23-10.85L235.23-10.85Q235.08-7.55 233.73-4.98 232.38-2.4 229.83-0.95 227.28 0.5 223.48 0.5ZM223.48-3.35L223.48-3.35Q226.58-3.35 228.43-5.33 230.28-7.3 230.43-11.1L230.43-11.1Q230.48-11.85 230.48-13 230.48-14.15 230.43-14.9L230.43-14.9Q230.28-18.7 228.43-20.68 226.58-22.65 223.48-22.65L223.48-22.65Q220.38-22.65 218.5-20.68 216.63-18.7 216.53-14.9L216.53-14.9Q216.48-14.15 216.48-13 216.48-11.85 216.53-11.1L216.53-11.1Q216.63-7.3 218.5-5.33 220.38-3.35 223.48-3.35ZM245.18 0L242.68 0Q242.18 0 241.85-0.33 241.53-0.65 241.53-1.15L241.53-1.15 241.53-24.85Q241.53-25.35 241.85-25.68 242.18-26 242.68-26L242.68-26 245.03-26Q245.53-26 245.85-25.68 246.18-25.35 246.18-24.85L246.18-24.85 246.18-22.65Q247.48-24.35 249.45-25.43 251.43-26.5 254.53-26.5L254.53-26.5Q257.78-26.5 260.05-25.08 262.33-23.65 263.5-21.13 264.68-18.6 264.68-15.25L264.68-15.25 264.68-1.15Q264.68-0.65 264.35-0.33 264.03 0 263.53 0L263.53 0 261.03 0Q260.53 0 260.2-0.33 259.88-0.65 259.88-1.15L259.88-1.15 259.88-15Q259.88-18.5 258.18-20.48 256.48-22.45 253.18-22.45L253.18-22.45Q250.08-22.45 248.2-20.48 246.33-18.5 246.33-15L246.33-15 246.33-1.15Q246.33-0.65 246-0.33 245.68 0 245.18 0L245.18 0ZM288.27 0L285.87 0Q285.32 0 285.02-0.33 284.72-0.65 284.72-1.15L284.72-1.15 284.72-33.8Q284.72-34.35 285.02-34.68 285.32-35 285.87-35L285.87-35 288.17-35Q288.77-35 289.07-34.73 289.37-34.45 289.42-34.3L289.42-34.3 306.02-8.8 306.02-33.8Q306.02-34.35 306.32-34.68 306.62-35 307.17-35L307.17-35 309.57-35Q310.12-35 310.45-34.68 310.77-34.35 310.77-33.8L310.77-33.8 310.77-1.2Q310.77-0.7 310.45-0.35 310.12 0 309.62 0L309.62 0 307.22 0Q306.67 0 306.4-0.3 306.12-0.6 306.02-0.7L306.02-0.7 289.47-25.95 289.47-1.15Q289.47-0.65 289.15-0.33 288.82 0 288.27 0L288.27 0ZM329.47 0.5L329.47 0.5Q325.67 0.5 323.12-0.95 320.57-2.4 319.22-4.98 317.87-7.55 317.72-10.85L317.72-10.85Q317.67-11.7 317.67-13.03 317.67-14.35 317.72-15.15L317.72-15.15Q317.87-18.5 319.24-21.05 320.62-23.6 323.17-25.05 325.72-26.5 329.47-26.5L329.47-26.5Q333.22-26.5 335.77-25.05 338.32-23.6 339.69-21.05 341.07-18.5 341.22-15.15L341.22-15.15Q341.27-14.35 341.27-13.03 341.27-11.7 341.22-10.85L341.22-10.85Q341.07-7.55 339.72-4.98 338.37-2.4 335.82-0.95 333.27 0.5 329.47 0.5ZM329.47-3.35L329.47-3.35Q332.57-3.35 334.42-5.33 336.27-7.3 336.42-11.1L336.42-11.1Q336.47-11.85 336.47-13 336.47-14.15 336.42-14.9L336.42-14.9Q336.27-18.7 334.42-20.68 332.57-22.65 329.47-22.65L329.47-22.65Q326.37-22.65 324.49-20.68 322.62-18.7 322.52-14.9L322.52-14.9Q322.47-14.15 322.47-13 322.47-11.85 322.52-11.1L322.52-11.1Q322.62-7.3 324.49-5.33 326.37-3.35 329.47-3.35ZM351.12 0L348.67 0Q348.17 0 347.84-0.33 347.52-0.65 347.52-1.15L347.52-1.15 347.52-24.8Q347.52-25.3 347.84-25.65 348.17-26 348.67-26L348.67-26 350.97-26Q351.47-26 351.82-25.65 352.17-25.3 352.17-24.8L352.17-24.8 352.17-22.6Q353.17-24.3 354.92-25.15 356.67-26 359.17-26L359.17-26 361.12-26Q361.62-26 361.94-25.68 362.27-25.35 362.27-24.85L362.27-24.85 362.27-22.8Q362.27-22.3 361.94-22 361.62-21.7 361.12-21.7L361.12-21.7 358.12-21.7Q355.42-21.7 353.87-20.13 352.32-18.55 352.32-15.85L352.32-15.85 352.32-1.15Q352.32-0.65 351.97-0.33 351.62 0 351.12 0L351.12 0ZM380.11 0L376.66 0Q373.86 0 372.11-1.07 370.36-2.15 369.56-4.13 368.76-6.1 368.76-8.8L368.76-8.8 368.76-22 364.86-22Q364.36-22 364.04-22.33 363.71-22.65 363.71-23.15L363.71-23.15 363.71-24.85Q363.71-25.35 364.04-25.68 364.36-26 364.86-26L364.86-26 368.76-26 368.76-34.35Q368.76-34.85 369.09-35.18 369.41-35.5 369.91-35.5L369.91-35.5 372.26-35.5Q372.76-35.5 373.09-35.18 373.41-34.85 373.41-34.35L373.41-34.35 373.41-26 379.61-26Q380.16-26 380.46-25.68 380.76-25.35 380.76-24.85L380.76-24.85 380.76-23.15Q380.76-22.65 380.46-22.33 380.16-22 379.61-22L379.61-22 373.41-22 373.41-9.15Q373.41-6.8 374.21-5.45 375.01-4.1 377.06-4.1L377.06-4.1 380.11-4.1Q380.61-4.1 380.94-3.78 381.26-3.45 381.26-2.95L381.26-2.95 381.26-1.15Q381.26-0.65 380.94-0.33 380.61 0 380.11 0L380.11 0ZM389.76 0L387.26 0Q386.76 0 386.44-0.33 386.11-0.65 386.11-1.15L386.11-1.15 386.11-34.35Q386.11-34.85 386.44-35.18 386.76-35.5 387.26-35.5L387.26-35.5 389.76-35.5Q390.31-35.5 390.61-35.18 390.91-34.85 390.91-34.35L390.91-34.35 390.91-22.7Q392.26-24.4 394.21-25.45 396.16-26.5 399.16-26.5L399.16-26.5Q402.41-26.5 404.69-25.08 406.96-23.65 408.14-21.13 409.31-18.6 409.31-15.25L409.31-15.25 409.31-1.15Q409.31-0.65 409.01-0.33 408.71 0 408.16 0L408.16 0 405.66 0Q405.16 0 404.84-0.33 404.51-0.65 404.51-1.15L404.51-1.15 404.51-15Q404.51-18.5 402.81-20.48 401.11-22.45 397.81-22.45L397.81-22.45Q394.71-22.45 392.81-20.48 390.91-18.5 390.91-15L390.91-15 390.91-1.15Q390.91-0.65 390.61-0.33 390.31 0 389.76 0L389.76 0ZM420.06 0L417.71 0Q417.21 0 416.88-0.33 416.56-0.65 416.56-1.15L416.56-1.15 416.56-34.35Q416.56-34.85 416.88-35.18 417.21-35.5 417.71-35.5L417.71-35.5 420.06-35.5Q420.61-35.5 420.91-35.18 421.21-34.85 421.21-34.35L421.21-34.35 421.21-1.15Q421.21-0.65 420.91-0.33 420.61 0 420.06 0L420.06 0ZM435.91 0.5L435.91 0.5Q433.41 0.5 431.36-0.5 429.31-1.5 428.06-3.2 426.81-4.9 426.81-7.05L426.81-7.05Q426.81-10.5 429.61-12.55 432.41-14.6 436.91-15.25L436.91-15.25 444.36-16.3 444.36-17.75Q444.36-20.15 442.98-21.5 441.61-22.85 438.51-22.85L438.51-22.85Q436.31-22.85 434.91-21.95 433.51-21.05 432.96-19.65L432.96-19.65Q432.66-18.9 431.91-18.9L431.91-18.9 429.66-18.9Q429.11-18.9 428.83-19.23 428.56-19.55 428.56-20L428.56-20Q428.56-20.75 429.13-21.85 429.71-22.95 430.91-24 432.11-25.05 433.98-25.78 435.86-26.5 438.56-26.5L438.56-26.5Q441.56-26.5 443.61-25.73 445.66-24.95 446.83-23.65 448.01-22.35 448.53-20.7 449.06-19.05 449.06-17.35L449.06-17.35 449.06-1.15Q449.06-0.65 448.73-0.33 448.41 0 447.91 0L447.91 0 445.61 0Q445.06 0 444.76-0.33 444.46-0.65 444.46-1.15L444.46-1.15 444.46-3.3Q443.81-2.4 442.71-1.53 441.61-0.65 439.96-0.08 438.31 0.5 435.91 0.5ZM436.96-3.25L436.96-3.25Q439.01-3.25 440.71-4.13 442.41-5 443.38-6.85 444.36-8.7 444.36-11.5L444.36-11.5 444.36-12.9 438.56-12.05Q435.01-11.55 433.21-10.38 431.41-9.2 431.41-7.4L431.41-7.4Q431.41-6 432.23-5.08 433.06-4.15 434.33-3.7 435.61-3.25 436.96-3.25ZM459.9 0L457.4 0Q456.9 0 456.58-0.33 456.25-0.65 456.25-1.15L456.25-1.15 456.25-24.85Q456.25-25.35 456.58-25.68 456.9-26 457.4-26L457.4-26 459.75-26Q460.25-26 460.58-25.68 460.9-25.35 460.9-24.85L460.9-24.85 460.9-22.65Q462.2-24.35 464.18-25.43 466.15-26.5 469.25-26.5L469.25-26.5Q472.5-26.5 474.78-25.08 477.05-23.65 478.23-21.13 479.4-18.6 479.4-15.25L479.4-15.25 479.4-1.15Q479.4-0.65 479.08-0.33 478.75 0 478.25 0L478.25 0 475.75 0Q475.25 0 474.93-0.33 474.6-0.65 474.6-1.15L474.6-1.15 474.6-15Q474.6-18.5 472.9-20.48 471.2-22.45 467.9-22.45L467.9-22.45Q464.8-22.45 462.93-20.48 461.05-18.5 461.05-15L461.05-15 461.05-1.15Q461.05-0.65 460.73-0.33 460.4 0 459.9 0L459.9 0ZM496.05 0.5L496.05 0.5Q493.3 0.5 491.3-0.48 489.3-1.45 488.03-3.13 486.75-4.8 486.13-6.95 485.5-9.1 485.4-11.5L485.4-11.5Q485.35-12.3 485.35-13 485.35-13.7 485.4-14.5L485.4-14.5Q485.5-16.85 486.13-19 486.75-21.15 488.03-22.85 489.3-24.55 491.3-25.53 493.3-26.5 496.05-26.5L496.05-26.5Q499-26.5 500.95-25.45 502.9-24.4 504.15-22.85L504.15-22.85 504.15-34.35Q504.15-34.85 504.48-35.18 504.8-35.5 505.3-35.5L505.3-35.5 507.7-35.5Q508.2-35.5 508.53-35.18 508.85-34.85 508.85-34.35L508.85-34.35 508.85-1.15Q508.85-0.65 508.53-0.33 508.2 0 507.7 0L507.7 0 505.45 0Q504.9 0 504.6-0.33 504.3-0.65 504.3-1.15L504.3-1.15 504.3-3.25Q503.05-1.65 501.05-0.58 499.05 0.5 496.05 0.5ZM497.1-3.55L497.1-3.55Q499.6-3.55 501.1-4.7 502.6-5.85 503.35-7.63 504.1-9.4 504.15-11.25L504.15-11.25Q504.2-12.05 504.2-13.18 504.2-14.3 504.15-15.1L504.15-15.1Q504.1-16.85 503.33-18.55 502.55-20.25 501.03-21.35 499.5-22.45 497.1-22.45L497.1-22.45Q494.55-22.45 493.05-21.33 491.55-20.2 490.9-18.38 490.25-16.55 490.15-14.45L490.15-14.45Q490.1-13 490.15-11.55L490.15-11.55Q490.25-9.45 490.9-7.63 491.55-5.8 493.05-4.67 494.55-3.55 497.1-3.55Z" opacity="1" transform="matrix(1,0,0,1,0,0)" fill="#000000" class="undefined-text-0" data-fill-palette-color="primary" id="text-0"></path></svg></g></svg></g></svg></g></svg></g></svg></g></svg></g></svg></g><g mask="url(&quot;#09d80a79-28b6-4558-bfda-1d3012a78b4f&quot;)"><g transform="matrix(3.4089170861141818, 0, 0, 3.4089170861141818, 135.2421571407691, 1)"><svg xmlns="http://www.w3.org/2000/svg" xmlns:xlink="http://www.w3.org/1999/xlink" version="1.1" x="0" y="0" viewBox="31.660999298095703 14.03600025177002 36.67900466918945 71.92900085449219" enable-background="new 0 0 100 100" xml:space="preserve" height="71.92900085449219" width="36.67900466918945" class="icon-none" data-fill-palette-color="accent" id="none"><g fill="#ffffff" data-fill-palette-color="accent"><path fill="#000000" d="M50 14.036c-8.477 0-15.372 6.796-15.372 15.49 0 3.993 1.441 7.448 3.673 10.138 0.028 0 0.028 0 0.028 0.028 4.013 4.248 6.076 6.598 7.093 12.007v0.029l2.656 16.566c0.057 0.396 0.424 0.68 0.792 0.68H50h1.131c0.367 0 0.734-0.283 0.791-0.68l2.684-16.596h-0.027c1.018-5.409 3.107-7.759 7.092-12.007 0-0.028 0-0.028 0.029-0.028 2.232-2.69 3.674-6.145 3.674-10.138C65.373 20.832 58.479 14.036 50 14.036L50 14.036zM50 15.622c7.631 0 13.792 6.06 13.792 13.904 0 3.597-1.301 6.683-3.307 9.09 0 0 0 0 0 0.028-4.014 4.248-6.359 7.051-7.432 12.771-0.029 0.029-0.029 0.029-0.029 0.029l-2.599 15.943H50h-0.424l-2.6-15.943c0 0 0 0 0-0.029-1.073-5.72-3.447-8.524-7.431-12.771-0.028-0.028-0.028-0.028-0.028-0.028-2.006-2.407-3.306-5.494-3.306-9.09C36.21 21.682 42.371 15.622 50 15.622L50 15.622zM50 23.154c-3.475 0-6.329 2.86-6.329 6.372s2.854 6.4 6.329 6.4c3.504 0 6.331-2.888 6.331-6.4S53.504 23.154 50 23.154L50 23.154zM50 24.74c2.629 0 4.749 2.124 4.749 4.786 0 2.634-2.119 4.786-4.749 4.786-2.627 0-4.719-2.152-4.719-4.786C45.281 26.864 47.373 24.74 50 24.74L50 24.74zM50 73.25c-4.916 0-9.381 0.623-12.659 1.67-1.639 0.539-2.996 1.162-3.984 1.898-0.989 0.764-1.696 1.699-1.696 2.803 0 1.105 0.707 2.039 1.696 2.805 0.989 0.736 2.345 1.359 3.984 1.896 3.278 1.047 7.743 1.643 12.659 1.643 4.918 0 9.354-0.596 12.631-1.643 1.641-0.537 3.023-1.16 4.014-1.896 1.018-0.766 1.695-1.699 1.695-2.805 0-1.104-0.678-2.039-1.695-2.803-0.99-0.736-2.373-1.359-4.014-1.898C59.354 73.873 54.918 73.25 50 73.25L50 73.25zM50 74.863c4.776 0 9.1 0.623 12.18 1.586 1.525 0.482 2.713 1.076 3.504 1.643 0.764 0.596 1.074 1.105 1.074 1.529 0 0.426-0.311 0.936-1.074 1.529-0.791 0.566-1.979 1.162-3.504 1.643-3.08 0.963-7.404 1.586-12.18 1.586-4.775 0-9.098-0.623-12.15-1.586-1.526-0.48-2.769-1.076-3.561-1.643-0.763-0.594-1.045-1.104-1.045-1.529 0-0.424 0.283-0.934 1.045-1.529 0.792-0.566 2.035-1.16 3.561-1.643C40.901 75.486 45.224 74.863 50 74.863L50 74.863z" data-fill-palette-color="accent"></path></g></svg></g></g><mask id="09d80a79-28b6-4558-bfda-1d3012a78b4f"><rect width="640" height="400" fill="white"></rect><g transform="matrix(1,0,0,1,39.55199999999999,110.74589108036503)"><svg viewBox="0 0 316.416 25.708217839269942" height="25.708217839269942" width="316.416"><g><svg viewBox="0 0 316.416 25.708217839269942" height="25.708217839269942" width="316.416"><g><svg viewBox="0 0 316.416 25.708217839269942" height="25.708217839269942" width="316.416"><g><svg viewBox="0 0 316.416 25.708217839269942" height="25.708217839269942" width="316.416"><g id="SvgjsG1098"><svg viewBox="0 0 316.416 25.708217839269942" height="25.708217839269942" width="316.416" id="SvgjsSvg1097"><g><svg viewBox="0 0 316.416 25.708217839269942" height="25.708217839269942" width="316.416"><g transform="matrix(1,0,0,1,0,0)"><svg width="316.416" viewBox="1.3499999046325684 -38.900001525878906 510.5 42.400001525878906" height="25.708217839269942" data-palette-color="#ffffff"><path d="M17.1 0L5.5 0Q4.95 0 4.65-0.33 4.35-0.65 4.35-1.15L4.35-1.15 4.35-33.8Q4.35-34.35 4.65-34.68 4.95-35 5.5-35L5.5-35 16.85-35Q22-35 25.15-33.45 28.3-31.9 29.75-28.88 31.2-25.85 31.25-21.45L31.25-21.45Q31.3-19.2 31.3-17.5 31.3-15.8 31.25-13.6L31.25-13.6Q31.15-9 29.73-5.98 28.3-2.95 25.23-1.48 22.15 0 17.1 0L17.1 0ZM9.25-30.75L9.25-4.25 16.85-4.25Q20.3-4.25 22.35-5.2 24.4-6.15 25.33-8.25 26.25-10.35 26.3-13.8L26.3-13.8Q26.4-15.3 26.4-16.43 26.4-17.55 26.4-18.68 26.4-19.8 26.3-21.25L26.3-21.25Q26.2-26.1 24-28.43 21.8-30.75 16.6-30.75L16.6-30.75 9.25-30.75ZM48.55 0.5L48.55 0.5Q43.35 0.5 40.3-2.68 37.25-5.85 36.95-11.35L36.95-11.35Q36.9-12 36.9-13.03 36.9-14.05 36.95-14.7L36.95-14.7Q37.15-18.25 38.6-20.93 40.05-23.6 42.57-25.05 45.1-26.5 48.5-26.5L48.5-26.5Q52.3-26.5 54.87-24.9 57.45-23.3 58.8-20.35 60.15-17.4 60.15-13.45L60.15-13.45 60.15-12.6Q60.15-12.05 59.82-11.75 59.5-11.45 59-11.45L59-11.45 41.7-11.45Q41.7-11.4 41.7-11.25 41.7-11.1 41.7-11L41.7-11Q41.8-8.95 42.6-7.18 43.4-5.4 44.92-4.3 46.45-3.2 48.5-3.2L48.5-3.2Q50.3-3.2 51.5-3.75 52.7-4.3 53.45-4.98 54.2-5.65 54.45-6.05L54.45-6.05Q54.9-6.65 55.15-6.78 55.4-6.9 55.95-6.9L55.95-6.9 58.4-6.9Q58.85-6.9 59.17-6.63 59.5-6.35 59.45-5.85L59.45-5.85Q59.4-5.1 58.65-4.03 57.9-2.95 56.52-1.9 55.15-0.85 53.12-0.18 51.1 0.5 48.55 0.5ZM41.7-15.05L41.7-14.9 55.4-14.9 55.4-15.05Q55.4-17.3 54.57-19.05 53.75-20.8 52.2-21.83 50.65-22.85 48.5-22.85L48.5-22.85Q46.35-22.85 44.82-21.83 43.3-20.8 42.5-19.05 41.7-17.3 41.7-15.05L41.7-15.05ZM75.15 0.5L75.15 0.5Q72.35 0.5 70.35-0.2 68.35-0.9 67.1-1.9 65.85-2.9 65.22-3.9 64.6-4.9 64.55-5.5L64.55-5.5Q64.5-6.05 64.9-6.35 65.3-6.65 65.7-6.65L65.7-6.65 67.95-6.65Q68.2-6.65 68.37-6.58 68.55-6.5 68.85-6.15L68.85-6.15Q69.5-5.45 70.3-4.75 71.1-4.05 72.27-3.6 73.45-3.15 75.2-3.15L75.2-3.15Q77.75-3.15 79.4-4.13 81.05-5.1 81.05-7L81.05-7Q81.05-8.25 80.37-9 79.7-9.75 77.97-10.35 76.25-10.95 73.25-11.6L73.25-11.6Q70.25-12.3 68.5-13.33 66.75-14.35 66-15.78 65.25-17.2 65.25-19L65.25-19Q65.25-20.85 66.35-22.58 67.45-24.3 69.57-25.4 71.7-26.5 74.9-26.5L74.9-26.5Q77.5-26.5 79.35-25.85 81.2-25.2 82.4-24.23 83.6-23.25 84.2-22.3 84.8-21.35 84.85-20.7L84.85-20.7Q84.9-20.2 84.55-19.88 84.2-19.55 83.75-19.55L83.75-19.55 81.65-19.55Q81.3-19.55 81.07-19.7 80.85-19.85 80.65-20.05L80.65-20.05Q80.15-20.7 79.47-21.35 78.8-22 77.72-22.43 76.65-22.85 74.9-22.85L74.9-22.85Q72.4-22.85 71.15-21.8 69.9-20.75 69.9-19.15L69.9-19.15Q69.9-18.2 70.45-17.45 71-16.7 72.55-16.1 74.1-15.5 77.15-14.8L77.15-14.8Q80.45-14.15 82.35-13.05 84.25-11.95 85.05-10.5 85.85-9.05 85.85-7.15L85.85-7.15Q85.85-5.05 84.65-3.3 83.45-1.55 81.05-0.53 78.65 0.5 75.15 0.5ZM105.24 0L101.79 0Q98.99 0 97.24-1.07 95.49-2.15 94.69-4.13 93.89-6.1 93.89-8.8L93.89-8.8 93.89-22 89.99-22Q89.49-22 89.17-22.33 88.84-22.65 88.84-23.15L88.84-23.15 88.84-24.85Q88.84-25.35 89.17-25.68 89.49-26 89.99-26L89.99-26 93.89-26 93.89-34.35Q93.89-34.85 94.22-35.18 94.54-35.5 95.04-35.5L95.04-35.5 97.39-35.5Q97.89-35.5 98.22-35.18 98.54-34.85 98.54-34.35L98.54-34.35 98.54-26 104.74-26Q105.29-26 105.59-25.68 105.89-25.35 105.89-24.85L105.89-24.85 105.89-23.15Q105.89-22.65 105.59-22.33 105.29-22 104.74-22L104.74-22 98.54-22 98.54-9.15Q98.54-6.8 99.34-5.45 100.14-4.1 102.19-4.1L102.19-4.1 105.24-4.1Q105.74-4.1 106.07-3.78 106.39-3.45 106.39-2.95L106.39-2.95 106.39-1.15Q106.39-0.65 106.07-0.33 105.74 0 105.24 0L105.24 0ZM114.74 0L112.34 0Q111.84 0 111.52-0.33 111.19-0.65 111.19-1.15L111.19-1.15 111.19-24.85Q111.19-25.35 111.52-25.68 111.84-26 112.34-26L112.34-26 114.74-26Q115.24-26 115.57-25.68 115.89-25.35 115.89-24.85L115.89-24.85 115.89-1.15Q115.89-0.65 115.57-0.33 115.24 0 114.74 0L114.74 0ZM115.09-30.85L111.94-30.85Q111.44-30.85 111.12-31.18 110.79-31.5 110.79-32L110.79-32 110.79-34.7Q110.79-35.2 111.12-35.55 111.44-35.9 111.94-35.9L111.94-35.9 115.09-35.9Q115.59-35.9 115.94-35.55 116.29-35.2 116.29-34.7L116.29-34.7 116.29-32Q116.29-31.5 115.94-31.18 115.59-30.85 115.09-30.85L115.09-30.85ZM126.94 0L124.44 0Q123.94 0 123.61-0.33 123.29-0.65 123.29-1.15L123.29-1.15 123.29-24.85Q123.29-25.35 123.61-25.68 123.94-26 124.44-26L124.44-26 126.79-26Q127.29-26 127.61-25.68 127.94-25.35 127.94-24.85L127.94-24.85 127.94-22.65Q129.24-24.35 131.21-25.43 133.19-26.5 136.29-26.5L136.29-26.5Q139.54-26.5 141.81-25.08 144.09-23.65 145.26-21.13 146.44-18.6 146.44-15.25L146.44-15.25 146.44-1.15Q146.44-0.65 146.11-0.33 145.79 0 145.29 0L145.29 0 142.79 0Q142.29 0 141.96-0.33 141.64-0.65 141.64-1.15L141.64-1.15 141.64-15Q141.64-18.5 139.94-20.48 138.24-22.45 134.94-22.45L134.94-22.45Q131.84-22.45 129.96-20.48 128.09-18.5 128.09-15L128.09-15 128.09-1.15Q128.09-0.65 127.76-0.33 127.44 0 126.94 0L126.94 0ZM160.84 0.5L160.84 0.5Q158.34 0.5 156.29-0.5 154.24-1.5 152.99-3.2 151.74-4.9 151.74-7.05L151.74-7.05Q151.74-10.5 154.54-12.55 157.34-14.6 161.84-15.25L161.84-15.25 169.29-16.3 169.29-17.75Q169.29-20.15 167.91-21.5 166.54-22.85 163.44-22.85L163.44-22.85Q161.24-22.85 159.84-21.95 158.44-21.05 157.89-19.65L157.89-19.65Q157.59-18.9 156.84-18.9L156.84-18.9 154.59-18.9Q154.04-18.9 153.76-19.23 153.49-19.55 153.49-20L153.49-20Q153.49-20.75 154.06-21.85 154.64-22.95 155.84-24 157.04-25.05 158.91-25.78 160.79-26.5 163.49-26.5L163.49-26.5Q166.49-26.5 168.54-25.73 170.59-24.95 171.76-23.65 172.94-22.35 173.46-20.7 173.99-19.05 173.99-17.35L173.99-17.35 173.99-1.15Q173.99-0.65 173.66-0.33 173.34 0 172.84 0L172.84 0 170.54 0Q169.99 0 169.69-0.33 169.39-0.65 169.39-1.15L169.39-1.15 169.39-3.3Q168.74-2.4 167.64-1.53 166.54-0.65 164.89-0.08 163.24 0.5 160.84 0.5ZM161.89-3.25L161.89-3.25Q163.94-3.25 165.64-4.13 167.34-5 168.31-6.85 169.29-8.7 169.29-11.5L169.29-11.5 169.29-12.9 163.49-12.05Q159.94-11.55 158.14-10.38 156.34-9.2 156.34-7.4L156.34-7.4Q156.34-6 157.16-5.08 157.99-4.15 159.26-3.7 160.54-3.25 161.89-3.25ZM194.78 0L191.33 0Q188.53 0 186.78-1.07 185.03-2.15 184.23-4.13 183.43-6.1 183.43-8.8L183.43-8.8 183.43-22 179.53-22Q179.03-22 178.71-22.33 178.38-22.65 178.38-23.15L178.38-23.15 178.38-24.85Q178.38-25.35 178.71-25.68 179.03-26 179.53-26L179.53-26 183.43-26 183.43-34.35Q183.43-34.85 183.76-35.18 184.08-35.5 184.58-35.5L184.58-35.5 186.93-35.5Q187.43-35.5 187.76-35.18 188.08-34.85 188.08-34.35L188.08-34.35 188.08-26 194.28-26Q194.83-26 195.13-25.68 195.43-25.35 195.43-24.85L195.43-24.85 195.43-23.15Q195.43-22.65 195.13-22.33 194.83-22 194.28-22L194.28-22 188.08-22 188.08-9.15Q188.08-6.8 188.88-5.45 189.68-4.1 191.73-4.1L191.73-4.1 194.78-4.1Q195.28-4.1 195.61-3.78 195.93-3.45 195.93-2.95L195.93-2.95 195.93-1.15Q195.93-0.65 195.61-0.33 195.28 0 194.78 0L194.78 0ZM204.28 0L201.88 0Q201.38 0 201.06-0.33 200.73-0.65 200.73-1.15L200.73-1.15 200.73-24.85Q200.73-25.35 201.06-25.68 201.38-26 201.88-26L201.88-26 204.28-26Q204.78-26 205.11-25.68 205.43-25.35 205.43-24.85L205.43-24.85 205.43-1.15Q205.43-0.65 205.11-0.33 204.78 0 204.28 0L204.28 0ZM204.63-30.85L201.48-30.85Q200.98-30.85 200.66-31.18 200.33-31.5 200.33-32L200.33-32 200.33-34.7Q200.33-35.2 200.66-35.55 200.98-35.9 201.48-35.9L201.48-35.9 204.63-35.9Q205.13-35.9 205.48-35.55 205.83-35.2 205.83-34.7L205.83-34.7 205.83-32Q205.83-31.5 205.48-31.18 205.13-30.85 204.63-30.85L204.63-30.85ZM223.48 0.5L223.48 0.5Q219.68 0.5 217.13-0.95 214.58-2.4 213.23-4.98 211.88-7.55 211.73-10.85L211.73-10.85Q211.68-11.7 211.68-13.03 211.68-14.35 211.73-15.15L211.73-15.15Q211.88-18.5 213.25-21.05 214.63-23.6 217.18-25.05 219.73-26.5 223.48-26.5L223.48-26.5Q227.23-26.5 229.78-25.05 232.33-23.6 233.7-21.05 235.08-18.5 235.23-15.15L235.23-15.15Q235.28-14.35 235.28-13.03 235.28-11.7 235.23-10.85L235.23-10.85Q235.08-7.55 233.73-4.98 232.38-2.4 229.83-0.95 227.28 0.5 223.48 0.5ZM223.48-3.35L223.48-3.35Q226.58-3.35 228.43-5.33 230.28-7.3 230.43-11.1L230.43-11.1Q230.48-11.85 230.48-13 230.48-14.15 230.43-14.9L230.43-14.9Q230.28-18.7 228.43-20.68 226.58-22.65 223.48-22.65L223.48-22.65Q220.38-22.65 218.5-20.68 216.63-18.7 216.53-14.9L216.53-14.9Q216.48-14.15 216.48-13 216.48-11.85 216.53-11.1L216.53-11.1Q216.63-7.3 218.5-5.33 220.38-3.35 223.48-3.35ZM245.18 0L242.68 0Q242.18 0 241.85-0.33 241.53-0.65 241.53-1.15L241.53-1.15 241.53-24.85Q241.53-25.35 241.85-25.68 242.18-26 242.68-26L242.68-26 245.03-26Q245.53-26 245.85-25.68 246.18-25.35 246.18-24.85L246.18-24.85 246.18-22.65Q247.48-24.35 249.45-25.43 251.43-26.5 254.53-26.5L254.53-26.5Q257.78-26.5 260.05-25.08 262.33-23.65 263.5-21.13 264.68-18.6 264.68-15.25L264.68-15.25 264.68-1.15Q264.68-0.65 264.35-0.33 264.03 0 263.53 0L263.53 0 261.03 0Q260.53 0 260.2-0.33 259.88-0.65 259.88-1.15L259.88-1.15 259.88-15Q259.88-18.5 258.18-20.48 256.48-22.45 253.18-22.45L253.18-22.45Q250.08-22.45 248.2-20.48 246.33-18.5 246.33-15L246.33-15 246.33-1.15Q246.33-0.65 246-0.33 245.68 0 245.18 0L245.18 0ZM288.27 0L285.87 0Q285.32 0 285.02-0.33 284.72-0.65 284.72-1.15L284.72-1.15 284.72-33.8Q284.72-34.35 285.02-34.68 285.32-35 285.87-35L285.87-35 288.17-35Q288.77-35 289.07-34.73 289.37-34.45 289.42-34.3L289.42-34.3 306.02-8.8 306.02-33.8Q306.02-34.35 306.32-34.68 306.62-35 307.17-35L307.17-35 309.57-35Q310.12-35 310.45-34.68 310.77-34.35 310.77-33.8L310.77-33.8 310.77-1.2Q310.77-0.7 310.45-0.35 310.12 0 309.62 0L309.62 0 307.22 0Q306.67 0 306.4-0.3 306.12-0.6 306.02-0.7L306.02-0.7 289.47-25.95 289.47-1.15Q289.47-0.65 289.15-0.33 288.82 0 288.27 0L288.27 0ZM329.47 0.5L329.47 0.5Q325.67 0.5 323.12-0.95 320.57-2.4 319.22-4.98 317.87-7.55 317.72-10.85L317.72-10.85Q317.67-11.7 317.67-13.03 317.67-14.35 317.72-15.15L317.72-15.15Q317.87-18.5 319.24-21.05 320.62-23.6 323.17-25.05 325.72-26.5 329.47-26.5L329.47-26.5Q333.22-26.5 335.77-25.05 338.32-23.6 339.69-21.05 341.07-18.5 341.22-15.15L341.22-15.15Q341.27-14.35 341.27-13.03 341.27-11.7 341.22-10.85L341.22-10.85Q341.07-7.55 339.72-4.98 338.37-2.4 335.82-0.95 333.27 0.5 329.47 0.5ZM329.47-3.35L329.47-3.35Q332.57-3.35 334.42-5.33 336.27-7.3 336.42-11.1L336.42-11.1Q336.47-11.85 336.47-13 336.47-14.15 336.42-14.9L336.42-14.9Q336.27-18.7 334.42-20.68 332.57-22.65 329.47-22.65L329.47-22.65Q326.37-22.65 324.49-20.68 322.62-18.7 322.52-14.9L322.52-14.9Q322.47-14.15 322.47-13 322.47-11.85 322.52-11.1L322.52-11.1Q322.62-7.3 324.49-5.33 326.37-3.35 329.47-3.35ZM351.12 0L348.67 0Q348.17 0 347.84-0.33 347.52-0.65 347.52-1.15L347.52-1.15 347.52-24.8Q347.52-25.3 347.84-25.65 348.17-26 348.67-26L348.67-26 350.97-26Q351.47-26 351.82-25.65 352.17-25.3 352.17-24.8L352.17-24.8 352.17-22.6Q353.17-24.3 354.92-25.15 356.67-26 359.17-26L359.17-26 361.12-26Q361.62-26 361.94-25.68 362.27-25.35 362.27-24.85L362.27-24.85 362.27-22.8Q362.27-22.3 361.94-22 361.62-21.7 361.12-21.7L361.12-21.7 358.12-21.7Q355.42-21.7 353.87-20.13 352.32-18.55 352.32-15.85L352.32-15.85 352.32-1.15Q352.32-0.65 351.97-0.33 351.62 0 351.12 0L351.12 0ZM380.11 0L376.66 0Q373.86 0 372.11-1.07 370.36-2.15 369.56-4.13 368.76-6.1 368.76-8.8L368.76-8.8 368.76-22 364.86-22Q364.36-22 364.04-22.33 363.71-22.65 363.71-23.15L363.71-23.15 363.71-24.85Q363.71-25.35 364.04-25.68 364.36-26 364.86-26L364.86-26 368.76-26 368.76-34.35Q368.76-34.85 369.09-35.18 369.41-35.5 369.91-35.5L369.91-35.5 372.26-35.5Q372.76-35.5 373.09-35.18 373.41-34.85 373.41-34.35L373.41-34.35 373.41-26 379.61-26Q380.16-26 380.46-25.68 380.76-25.35 380.76-24.85L380.76-24.85 380.76-23.15Q380.76-22.65 380.46-22.33 380.16-22 379.61-22L379.61-22 373.41-22 373.41-9.15Q373.41-6.8 374.21-5.45 375.01-4.1 377.06-4.1L377.06-4.1 380.11-4.1Q380.61-4.1 380.94-3.78 381.26-3.45 381.26-2.95L381.26-2.95 381.26-1.15Q381.26-0.65 380.94-0.33 380.61 0 380.11 0L380.11 0ZM389.76 0L387.26 0Q386.76 0 386.44-0.33 386.11-0.65 386.11-1.15L386.11-1.15 386.11-34.35Q386.11-34.85 386.44-35.18 386.76-35.5 387.26-35.5L387.26-35.5 389.76-35.5Q390.31-35.5 390.61-35.18 390.91-34.85 390.91-34.35L390.91-34.35 390.91-22.7Q392.26-24.4 394.21-25.45 396.16-26.5 399.16-26.5L399.16-26.5Q402.41-26.5 404.69-25.08 406.96-23.65 408.14-21.13 409.31-18.6 409.31-15.25L409.31-15.25 409.31-1.15Q409.31-0.65 409.01-0.33 408.71 0 408.16 0L408.16 0 405.66 0Q405.16 0 404.84-0.33 404.51-0.65 404.51-1.15L404.51-1.15 404.51-15Q404.51-18.5 402.81-20.48 401.11-22.45 397.81-22.45L397.81-22.45Q394.71-22.45 392.81-20.48 390.91-18.5 390.91-15L390.91-15 390.91-1.15Q390.91-0.65 390.61-0.33 390.31 0 389.76 0L389.76 0ZM420.06 0L417.71 0Q417.21 0 416.88-0.33 416.56-0.65 416.56-1.15L416.56-1.15 416.56-34.35Q416.56-34.85 416.88-35.18 417.21-35.5 417.71-35.5L417.71-35.5 420.06-35.5Q420.61-35.5 420.91-35.18 421.21-34.85 421.21-34.35L421.21-34.35 421.21-1.15Q421.21-0.65 420.91-0.33 420.61 0 420.06 0L420.06 0ZM435.91 0.5L435.91 0.5Q433.41 0.5 431.36-0.5 429.31-1.5 428.06-3.2 426.81-4.9 426.81-7.05L426.81-7.05Q426.81-10.5 429.61-12.55 432.41-14.6 436.91-15.25L436.91-15.25 444.36-16.3 444.36-17.75Q444.36-20.15 442.98-21.5 441.61-22.85 438.51-22.85L438.51-22.85Q436.31-22.85 434.91-21.95 433.51-21.05 432.96-19.65L432.96-19.65Q432.66-18.9 431.91-18.9L431.91-18.9 429.66-18.9Q429.11-18.9 428.83-19.23 428.56-19.55 428.56-20L428.56-20Q428.56-20.75 429.13-21.85 429.71-22.95 430.91-24 432.11-25.05 433.98-25.78 435.86-26.5 438.56-26.5L438.56-26.5Q441.56-26.5 443.61-25.73 445.66-24.95 446.83-23.65 448.01-22.35 448.53-20.7 449.06-19.05 449.06-17.35L449.06-17.35 449.06-1.15Q449.06-0.65 448.73-0.33 448.41 0 447.91 0L447.91 0 445.61 0Q445.06 0 444.76-0.33 444.46-0.65 444.46-1.15L444.46-1.15 444.46-3.3Q443.81-2.4 442.71-1.53 441.61-0.65 439.96-0.08 438.31 0.5 435.91 0.5ZM436.96-3.25L436.96-3.25Q439.01-3.25 440.71-4.13 442.41-5 443.38-6.85 444.36-8.7 444.36-11.5L444.36-11.5 444.36-12.9 438.56-12.05Q435.01-11.55 433.21-10.38 431.41-9.2 431.41-7.4L431.41-7.4Q431.41-6 432.23-5.08 433.06-4.15 434.33-3.7 435.61-3.25 436.96-3.25ZM459.9 0L457.4 0Q456.9 0 456.58-0.33 456.25-0.65 456.25-1.15L456.25-1.15 456.25-24.85Q456.25-25.35 456.58-25.68 456.9-26 457.4-26L457.4-26 459.75-26Q460.25-26 460.58-25.68 460.9-25.35 460.9-24.85L460.9-24.85 460.9-22.65Q462.2-24.35 464.18-25.43 466.15-26.5 469.25-26.5L469.25-26.5Q472.5-26.5 474.78-25.08 477.05-23.65 478.23-21.13 479.4-18.6 479.4-15.25L479.4-15.25 479.4-1.15Q479.4-0.65 479.08-0.33 478.75 0 478.25 0L478.25 0 475.75 0Q475.25 0 474.93-0.33 474.6-0.65 474.6-1.15L474.6-1.15 474.6-15Q474.6-18.5 472.9-20.48 471.2-22.45 467.9-22.45L467.9-22.45Q464.8-22.45 462.93-20.48 461.05-18.5 461.05-15L461.05-15 461.05-1.15Q461.05-0.65 460.73-0.33 460.4 0 459.9 0L459.9 0ZM496.05 0.5L496.05 0.5Q493.3 0.5 491.3-0.48 489.3-1.45 488.03-3.13 486.75-4.8 486.13-6.95 485.5-9.1 485.4-11.5L485.4-11.5Q485.35-12.3 485.35-13 485.35-13.7 485.4-14.5L485.4-14.5Q485.5-16.85 486.13-19 486.75-21.15 488.03-22.85 489.3-24.55 491.3-25.53 493.3-26.5 496.05-26.5L496.05-26.5Q499-26.5 500.95-25.45 502.9-24.4 504.15-22.85L504.15-22.85 504.15-34.35Q504.15-34.85 504.48-35.18 504.8-35.5 505.3-35.5L505.3-35.5 507.7-35.5Q508.2-35.5 508.53-35.18 508.85-34.85 508.85-34.35L508.85-34.35 508.85-1.15Q508.85-0.65 508.53-0.33 508.2 0 507.7 0L507.7 0 505.45 0Q504.9 0 504.6-0.33 504.3-0.65 504.3-1.15L504.3-1.15 504.3-3.25Q503.05-1.65 501.05-0.58 499.05 0.5 496.05 0.5ZM497.1-3.55L497.1-3.55Q499.6-3.55 501.1-4.7 502.6-5.85 503.35-7.63 504.1-9.4 504.15-11.25L504.15-11.25Q504.2-12.05 504.2-13.18 504.2-14.3 504.15-15.1L504.15-15.1Q504.1-16.85 503.33-18.55 502.55-20.25 501.03-21.35 499.5-22.45 497.1-22.45L497.1-22.45Q494.55-22.45 493.05-21.33 491.55-20.2 490.9-18.38 490.25-16.55 490.15-14.45L490.15-14.45Q490.1-13 490.15-11.55L490.15-11.55Q490.25-9.45 490.9-7.63 491.55-5.8 493.05-4.67 494.55-3.55 497.1-3.55Z" opacity="1" transform="matrix(1,0,0,1,0,0)" fill="#000000" class="undefined-text-0" data-fill-palette-color="primary" id="SvgjsPath1096" stroke-width="5" stroke="black" stroke-linejoin="round"></path></svg></g></svg></g></svg></g></svg></g></svg></g></svg></g></svg></g></mask></svg></g><defs></defs></svg><rect width="395.52" height="247.2" fill="none" stroke="none" visibility="hidden"></rect></g></svg></g></svg>