<svg viewBox="0 0 154.5 154.5" height="154.5" width="154.5" data-background-color="#2979ff" preserveAspectRatio="xMidYMid meet" id="tight-bounds" xmlns="http://www.w3.org/2000/svg" xmlns:xlink="http://www.w3.org/1999/xlink"><g><svg/></g><g><svg viewBox="0 0 154.5 154.5" height="154.5" width="154.5"><g transform="matrix(1,0,0,1,39.0576,53.48584)"><svg viewBox="0 0 76.3848 47.528319999999994" height="47.528319999999994" width="76.3848"><g><svg viewBox="0 0 76.3848 47.528319999999994" height="47.528319999999994" width="76.3848"><g><svg viewBox="0 0 76.3848 47.528319999999994" height="47.528319999999994" width="76.3848"><g id="textblocktransform"><svg viewBox="0 0 76.3848 47.528319999999994" height="47.528319999999994" width="76.3848" id="textblock"><g><svg viewBox="0 0 76.3848 47.528319999999994" height="47.528319999999994" width="76.3848"><g transform="matrix(1,0,0,1,0,0)"><svg width="76.3848" viewBox="0.34999990463256836 -39 68.5 43" height="47.528319999999994" data-palette-color="#ffffff"><path d="M17.1 0L5.5 0Q4.95 0 4.65-0.33 4.35-0.65 4.35-1.15L4.35-1.15 4.35-33.8Q4.35-34.35 4.65-34.68 4.95-35 5.5-35L5.5-35 16.85-35Q22-35 25.15-33.45 28.3-31.9 29.75-28.88 31.2-25.85 31.25-21.45L31.25-21.45Q31.3-19.2 31.3-17.5 31.3-15.8 31.25-13.6L31.25-13.6Q31.15-9 29.73-5.98 28.3-2.95 25.23-1.48 22.15 0 17.1 0L17.1 0ZM9.25-30.75L9.25-4.25 16.85-4.25Q20.3-4.25 22.35-5.2 24.4-6.15 25.33-8.25 26.25-10.35 26.3-13.8L26.3-13.8Q26.4-15.3 26.4-16.43 26.4-17.55 26.4-18.68 26.4-19.8 26.3-21.25L26.3-21.25Q26.2-26.1 24-28.43 21.8-30.75 16.6-30.75L16.6-30.75 9.25-30.75ZM42.35 0L39.95 0Q39.4 0 39.1-0.33 38.8-0.65 38.8-1.15L38.8-1.15 38.8-33.8Q38.8-34.35 39.1-34.68 39.4-35 39.95-35L39.95-35 42.25-35Q42.85-35 43.15-34.73 43.45-34.45 43.5-34.3L43.5-34.3 60.1-8.8 60.1-33.8Q60.1-34.35 60.4-34.68 60.7-35 61.25-35L61.25-35 63.65-35Q64.2-35 64.52-34.68 64.85-34.35 64.85-33.8L64.85-33.8 64.85-1.2Q64.85-0.7 64.52-0.35 64.2 0 63.7 0L63.7 0 61.3 0Q60.75 0 60.47-0.3 60.2-0.6 60.1-0.7L60.1-0.7 43.55-25.95 43.55-1.15Q43.55-0.65 43.22-0.33 42.9 0 42.35 0L42.35 0Z" opacity="1" transform="matrix(1,0,0,1,0,0)" fill="#000000" class="undefined-text-0" data-fill-palette-color="primary" id="text-0"/></svg></g></svg></g></svg></g></svg></g></svg></g></svg></g><g mask="url(&quot;#f58d3e8f-cfb5-4866-9869-53c0a90a2a75&quot;)"><g transform="matrix(2.120146230148502, 0, 0, 2.120146230148502, 38.36757326250934, 1)"><svg xmlns="http://www.w3.org/2000/svg" xmlns:xlink="http://www.w3.org/1999/xlink" version="1.1" x="0" y="0" viewBox="31.660999298095703 14.03600025177002 36.67900466918945 71.92900085449219" enable-background="new 0 0 100 100" xml:space="preserve" height="71.92900085449219" width="36.67900466918945" class="icon-none" data-fill-palette-color="accent" id="none" fill="#000000"><g fill="#000000" data-fill-palette-color="accent"><path fill="#000000" d="M50 14.036c-8.477 0-15.372 6.796-15.372 15.49 0 3.993 1.441 7.448 3.673 10.138 0.028 0 0.028 0 0.028 0.028 4.013 4.248 6.076 6.598 7.093 12.007v0.029l2.656 16.566c0.057 0.396 0.424 0.68 0.792 0.68H50h1.131c0.367 0 0.734-0.283 0.791-0.68l2.684-16.596h-0.027c1.018-5.409 3.107-7.759 7.092-12.007 0-0.028 0-0.028 0.029-0.028 2.232-2.69 3.674-6.145 3.674-10.138C65.373 20.832 58.479 14.036 50 14.036L50 14.036zM50 15.622c7.631 0 13.792 6.06 13.792 13.904 0 3.597-1.301 6.683-3.307 9.09 0 0 0 0 0 0.028-4.014 4.248-6.359 7.051-7.432 12.771-0.029 0.029-0.029 0.029-0.029 0.029l-2.599 15.943H50h-0.424l-2.6-15.943c0 0 0 0 0-0.029-1.073-5.72-3.447-8.524-7.431-12.771-0.028-0.028-0.028-0.028-0.028-0.028-2.006-2.407-3.306-5.494-3.306-9.09C36.21 21.682 42.371 15.622 50 15.622L50 15.622zM50 23.154c-3.475 0-6.329 2.86-6.329 6.372s2.854 6.4 6.329 6.4c3.504 0 6.331-2.888 6.331-6.4S53.504 23.154 50 23.154L50 23.154zM50 24.74c2.629 0 4.749 2.124 4.749 4.786 0 2.634-2.119 4.786-4.749 4.786-2.627 0-4.719-2.152-4.719-4.786C45.281 26.864 47.373 24.74 50 24.74L50 24.74zM50 73.25c-4.916 0-9.381 0.623-12.659 1.67-1.639 0.539-2.996 1.162-3.984 1.898-0.989 0.764-1.696 1.699-1.696 2.803 0 1.105 0.707 2.039 1.696 2.805 0.989 0.736 2.345 1.359 3.984 1.896 3.278 1.047 7.743 1.643 12.659 1.643 4.918 0 9.354-0.596 12.631-1.643 1.641-0.537 3.023-1.16 4.014-1.896 1.018-0.766 1.695-1.699 1.695-2.805 0-1.104-0.678-2.039-1.695-2.803-0.99-0.736-2.373-1.359-4.014-1.898C59.354 73.873 54.918 73.25 50 73.25L50 73.25zM50 74.863c4.776 0 9.1 0.623 12.18 1.586 1.525 0.482 2.713 1.076 3.504 1.643 0.764 0.596 1.074 1.105 1.074 1.529 0 0.426-0.311 0.936-1.074 1.529-0.791 0.566-1.979 1.162-3.504 1.643-3.08 0.963-7.404 1.586-12.18 1.586-4.775 0-9.098-0.623-12.15-1.586-1.526-0.48-2.769-1.076-3.561-1.643-0.763-0.594-1.045-1.104-1.045-1.529 0-0.424 0.283-0.934 1.045-1.529 0.792-0.566 2.035-1.16 3.561-1.643C40.901 75.486 45.224 74.863 50 74.863L50 74.863z" data-fill-palette-color="accent"/></g></svg></g></g><mask id="f58d3e8f-cfb5-4866-9869-53c0a90a2a75"><rect width="250" height="250" fill="white"/><g transform="matrix(1,0,0,1,39.0576,53.48584)"><svg viewBox="0 0 76.3848 47.528319999999994" height="47.528319999999994" width="76.3848"><g><svg viewBox="0 0 76.3848 47.528319999999994" height="47.528319999999994" width="76.3848"><g><svg viewBox="0 0 76.3848 47.528319999999994" height="47.528319999999994" width="76.3848"><g id="SvgjsG1005"><svg viewBox="0 0 76.3848 47.528319999999994" height="47.528319999999994" width="76.3848" id="SvgjsSvg1004"><g><svg viewBox="0 0 76.3848 47.528319999999994" height="47.528319999999994" width="76.3848"><g transform="matrix(1,0,0,1,0,0)"><svg width="76.3848" viewBox="0.34999990463256836 -39 68.5 43" height="47.528319999999994" data-palette-color="#ffffff"><path d="M17.1 0L5.5 0Q4.95 0 4.65-0.33 4.35-0.65 4.35-1.15L4.35-1.15 4.35-33.8Q4.35-34.35 4.65-34.68 4.95-35 5.5-35L5.5-35 16.85-35Q22-35 25.15-33.45 28.3-31.9 29.75-28.88 31.2-25.85 31.25-21.45L31.25-21.45Q31.3-19.2 31.3-17.5 31.3-15.8 31.25-13.6L31.25-13.6Q31.15-9 29.73-5.98 28.3-2.95 25.23-1.48 22.15 0 17.1 0L17.1 0ZM9.25-30.75L9.25-4.25 16.85-4.25Q20.3-4.25 22.35-5.2 24.4-6.15 25.33-8.25 26.25-10.35 26.3-13.8L26.3-13.8Q26.4-15.3 26.4-16.43 26.4-17.55 26.4-18.68 26.4-19.8 26.3-21.25L26.3-21.25Q26.2-26.1 24-28.43 21.8-30.75 16.6-30.75L16.6-30.75 9.25-30.75ZM42.35 0L39.95 0Q39.4 0 39.1-0.33 38.8-0.65 38.8-1.15L38.8-1.15 38.8-33.8Q38.8-34.35 39.1-34.68 39.4-35 39.95-35L39.95-35 42.25-35Q42.85-35 43.15-34.73 43.45-34.45 43.5-34.3L43.5-34.3 60.1-8.8 60.1-33.8Q60.1-34.35 60.4-34.68 60.7-35 61.25-35L61.25-35 63.65-35Q64.2-35 64.52-34.68 64.85-34.35 64.85-33.8L64.85-33.8 64.85-1.2Q64.85-0.7 64.52-0.35 64.2 0 63.7 0L63.7 0 61.3 0Q60.75 0 60.47-0.3 60.2-0.6 60.1-0.7L60.1-0.7 43.55-25.95 43.55-1.15Q43.55-0.65 43.22-0.33 42.9 0 42.35 0L42.35 0Z" opacity="1" transform="matrix(1,0,0,1,0,0)" fill="#000000" class="undefined-text-0" data-fill-palette-color="primary" id="SvgjsPath1003" stroke-width="7" stroke="black" stroke-linejoin="round"/></svg></g></svg></g></svg></g></svg></g></svg></g></svg></g></mask></svg></g><defs/></svg>